<svg width="18" height="18" viewBox="0 0 18 18" fill="none" xmlns="http://www.w3.org/2000/svg">
<path d="M9.77107 1.50049C10.6151 1.50188 11.0428 1.50635 11.4124 1.51736L11.558 1.52211C11.7262 1.52809 11.8921 1.53559 12.0921 1.54496C12.8902 1.58184 13.4346 1.70809 13.9127 1.89371C14.407 2.08434 14.8246 2.34184 15.2414 2.75872C15.6577 3.17559 15.9152 3.59434 16.1065 4.08746C16.2914 4.56497 16.4177 5.10997 16.4552 5.90809C16.4641 6.10809 16.4713 6.27399 16.4773 6.44217L16.482 6.58774C16.4929 6.95729 16.498 7.38509 16.4995 8.22917L16.5001 8.78837C16.5002 8.85669 16.5002 8.92719 16.5002 8.99994L16.5001 9.21152L16.4997 9.77079C16.4983 10.6148 16.4938 11.0426 16.4828 11.4122L16.478 11.5577C16.4721 11.726 16.4646 11.8919 16.4552 12.0918C16.4183 12.89 16.2914 13.4343 16.1065 13.9124C15.9158 14.4068 15.6577 14.8244 15.2414 15.2412C14.8246 15.6575 14.4052 15.9149 13.9127 16.1062C13.4346 16.2912 12.8902 16.4174 12.0921 16.4549C11.8921 16.4639 11.7262 16.4711 11.558 16.477L11.4124 16.4817C11.0428 16.4927 10.6151 16.4977 9.77107 16.4993L9.2118 16.4999C9.14347 16.4999 9.07297 16.4999 9.00022 16.4999H8.78865L8.22937 16.4994C7.38532 16.4981 6.95754 16.4936 6.58798 16.4825L6.44241 16.4778C6.27423 16.4718 6.10833 16.4643 5.90833 16.4549C5.1102 16.4181 4.56646 16.2912 4.08771 16.1062C3.59395 15.9156 3.17583 15.6575 2.75896 15.2412C2.34208 14.8244 2.08521 14.405 1.89396 13.9124C1.70833 13.4343 1.58271 12.89 1.54521 12.0918C1.5363 11.8919 1.52903 11.726 1.52314 11.5577L1.51842 11.4122C1.50745 11.0426 1.50245 10.6148 1.50083 9.77079L1.50073 8.22917C1.50213 7.38509 1.50659 6.95729 1.51759 6.58774L1.52235 6.44217C1.52833 6.27399 1.53583 6.10809 1.54521 5.90809C1.58208 5.10934 1.70833 4.56559 1.89396 4.08746C2.08458 3.59372 2.34208 3.17559 2.75896 2.75872C3.17583 2.34184 3.59458 2.08496 4.08771 1.89371C4.56583 1.70809 5.10958 1.58246 5.90833 1.54496C6.10833 1.53606 6.27423 1.52879 6.44241 1.52291L6.58798 1.51819C6.95754 1.50721 7.38532 1.50221 8.22937 1.50059L9.77107 1.50049ZM9.00022 5.24996C6.92803 5.24996 5.25021 6.92961 5.25021 8.99994C5.25021 11.0721 6.92986 12.7499 9.00022 12.7499C11.0724 12.7499 12.7502 11.0703 12.7502 8.99994C12.7502 6.92779 11.0705 5.24996 9.00022 5.24996ZM9.00022 6.74996C10.2429 6.74996 11.2502 7.75697 11.2502 8.99994C11.2502 10.2426 10.2432 11.2499 9.00022 11.2499C7.75755 11.2499 6.75021 10.243 6.75021 8.99994C6.75021 7.75727 7.75717 6.74996 9.00022 6.74996ZM12.9377 4.12496C12.4207 4.12496 12.0002 4.5449 12.0002 5.06183C12.0002 5.57876 12.4201 5.99934 12.9377 5.99934C13.4546 5.99934 13.8752 5.57942 13.8752 5.06183C13.8752 4.5449 13.4539 4.12432 12.9377 4.12496Z" fill="white" fill-opacity="0.8"/>
</svg>
